<svg xmlns="http://www.w3.org/2000/svg" width="64.535" height="25.583" viewBox="0 0 17.075 6.769" aria-labelledby="title desc">
  <title id="title">{{ include.title | escape }}</title>
  <desc id="desc">{{ include.desc | escape }}</desc>
  <path d="M17.075 0q0 2.402-.218 3.668-.219 1.223-1.092 1.922-.83.698-2.708.698-1.834 0-5.153-.83-.393-.087-1.528-.305-1.092-.262-1.747-.262-.742 0-.917.35-.175.349-.175 1.528H0q0-2.402.218-3.625Q.437 1.878 1.31 1.18 2.184.48 4.061.48q1.834 0 5.153.83.437.088 1.529.35 1.092.218 1.747.218.742 0 .917-.35.174-.349.174-1.528z"/>
</svg>
