<svg xmlns="http://www.w3.org/2000/svg" viewBox="0 0 31.335 11.988" height="45" role="img" aria-labelledby="title desc">
  {% assign i18n = site.data[site.lang] %}
  <title id="title">{{ i18n.isologo.title }}</title>
  <desc id="desc">{{ i18n.isologo.desc }}</desc>
  <path d="M9.028 9.107c-.836 0-1.506-.254-2.017-.765-.51-.51-.77-1.148-.783-1.913V2.41h1.336v3.97c0 .38.14.708.418.98.278.273.625.41 1.04.41.381 0 .712-.134.992-.407.28-.272.421-.6.421-.984V2.41h1.328v4.02c-.013.767-.272 1.404-.777 1.912-.509.511-1.162.765-1.958.765M13.88 2.498h1.188V.018h1.33v2.48h1.186v1.328H16.4v5.278h-1.331V3.826H13.88zM19.367 2.477h1.188V0h1.331v2.477h1.186v1.33h-1.186v5.279h-1.33V3.807h-1.189zM1.503 7.567c.159.154.346.23.566.23a.773.773 0 0 0 .561-.23.77.77 0 0 0 .235-.571.763.763 0 0 0-.23-.559c-.108-.108-.336-.272-.688-.494-.479-.262-.82-.493-1.021-.694A1.723 1.723 0 0 1 .4 3.985c0-.498.174-.921.526-1.276.352-.352.775-.529 1.27-.529.497 0 .91.167 1.238.5.236.236.387.498.45.791l-1.291.373a.584.584 0 0 0-.09-.211.417.417 0 0 0-.307-.117.448.448 0 0 0-.33.138.448.448 0 0 0-.138.33c0 .13.045.239.135.329.082.076.264.209.553.391.531.291.915.556 1.156.797.415.42.622.918.622 1.495 0 .59-.207 1.095-.62 1.513a2.038 2.038 0 0 1-1.505.627 2.033 2.033 0 0 1-1.503-.63A2.085 2.085 0 0 1 0 7.435l1.323-.283c.037.193.098.333.18.415" class="is-path-magenta" fill="#f206f9"/>
  <path d="M26.777 11.988h-1.404l4.53-9.506h1.436z" class="is-path-magenta" fill="#f206f9"/>
  <path d="M26.954 6.468h1.435l-.145-.306h-1.439zm-1.793-3.68h1.49l-.146-.306H25.01zm.297.614h1.483l-.145-.307H25.31zm.3.613h1.47l-.141-.307h-1.48zm.298.613h1.464l-.146-.306h-1.467zm.3.614h1.455l-.146-.307h-1.46zm.297.613h1.445l-.142-.307h-1.451zm.598 1.227h1.429l-.145-.307h-1.433zm.152.306l.076.162-.07.145h1.42l.07-.145-.074-.162zm-.275.91l-.007.01h1.414l.148-.306h-1.416zm-.3.624h1.413l.148-.307h-1.413zm-.291.613h1.41l.148-.307h-1.413zm-.291.613h1.41l.145-.306h-1.41zm-.294.614h1.41l.145-.307h-1.41zm-.291.613h1.407l.145-.307h-1.407zm1.113.613l.145-.306h-1.407l-.145.306z" class="is-path-magenta" fill="#13fefe"/>
</svg>
