<svg xmlns="http://www.w3.org/2000/svg" width="317" height="300.7" role="img" aria-labelledby="title desc">
  {% assign i18n = site.data[site.lang] %}
  <title id="title">{{ i18n.logo.title | escape }}</title>
  <desc id="desc">{{ i18n.logo.desc | escape }}</desc>
  <path fill="#f206f9" d="M137.9 300.7H93.5L236.8 0h45.4z">
    <animate
      attributeType="XML"
      attributeName="d"
      from="M 44.4,300.7 H 0 L 143.3,0 h 45.4 z"
      to="M137.9 300.7H93.5L236.8 0h45.4z"
      dur="3s"
      keySplines="0.5 0.8 0.2 1"
      calcMode="spline"
      fill="freeze"/>
    <animate attributeType="XML" attributeName="opacity" from="0.3" to="1" dur="3s" fill="freeze"/>
  </path>
  <path fill="#13fefe" d="M61.5 126.1h45.4l-4.6-9.7H56.8zM4.8 9.7h47.1L47.3 0H0zM14.2 29.1h46.9l-4.6-9.7h-47zM23.7 48.5h46.5l-4.5-9.7H18.9zM33.1 67.9h46.3l-4.6-9.7H28.4zM42.6 87.3h46L84 77.6H37.8zM52 106.7h45.7L93.2 97H47.3zM70.9 145.5h45.2l-4.6-9.7H66.2zM75.7 155.2l2.4 5.1-2.2 4.6h44.9l2.2-4.6-2.3-5.1zM67 184l-.2.3h44.7l4.7-9.7H71.4zM57.5 203.7h44.7l4.7-9.7H62.2zM48.3 223.1h44.6l4.7-9.7H52.9zM39.1 242.5h44.6l4.6-9.7H43.7zM29.8 261.9h44.6l4.6-9.7H34.4zM20.6 281.3h44.5l4.6-9.7H25.2zM55.8 300.7l4.6-9.7H15.9l-4.6 9.7z">
    <animate
      attributeType="XML"
      attributeName="d"
      from="m 255.5,126.1 h 45.4 l -4.6,-9.7 H 250.8 Z M 198.8,9.7 h 47.1 L 241.3,0 H 194 Z m 9.4,19.4 h 46.9 l -4.6,-9.7 h -47 z m 9.5,19.4 h 46.5 l -4.5,-9.7 h -46.8 z m 9.4,19.4 h 46.3 l -4.6,-9.7 h -46.4 z m 9.5,19.4 h 46 L 278,77.6 h -46.2 z m 9.4,19.4 h 45.7 L 287.2,97 h -45.9 z m 18.9,38.8 h 45.2 l -4.6,-9.7 h -45.3 z m 4.8,9.7 2.4,5.1 -2.2,4.6 h 44.9 l 2.2,-4.6 -2.3,-5.1 z m -8.7,28.8 -0.2,0.3 h 44.7 l 4.7,-9.7 h -44.8 z m -9.5,19.7 h 44.7 l 4.7,-9.7 h -44.7 z m -9.2,19.4 h 44.6 l 4.7,-9.7 h -44.7 z m -9.2,19.4 h 44.6 l 4.6,-9.7 h -44.6 z m -9.3,19.4 h 44.6 l 4.6,-9.7 h -44.6 z m -9.2,19.4 h 44.5 l 4.6,-9.7 h -44.5 z m 35.2,19.4 4.6,-9.7 h -44.5 l -4.6,9.7 z"
      to="M61.5 126.1h45.4l-4.6-9.7H56.8zM4.8 9.7h47.1L47.3 0H0zM14.2 29.1h46.9l-4.6-9.7h-47zM23.7 48.5h46.5l-4.5-9.7H18.9zM33.1 67.9h46.3l-4.6-9.7H28.4zM42.6 87.3h46L84 77.6H37.8zM52 106.7h45.7L93.2 97H47.3zM70.9 145.5h45.2l-4.6-9.7H66.2zM75.7 155.2l2.4 5.1-2.2 4.6h44.9l2.2-4.6-2.3-5.1zM67 184l-.2.3h44.7l4.7-9.7H71.4zM57.5 203.7h44.7l4.7-9.7H62.2zM48.3 223.1h44.6l4.7-9.7H52.9zM39.1 242.5h44.6l4.6-9.7H43.7zM29.8 261.9h44.6l4.6-9.7H34.4zM20.6 281.3h44.5l4.6-9.7H25.2zM55.8 300.7l4.6-9.7H15.9l-4.6 9.7z"
      dur="3s"
      keySplines="0.5 0.8 0.2 1"
      calcMode="spline"
      fill="freeze"/>
    <animate attributeType="XML" attributeName="opacity" from="0.3" to="1" dur="3s" fill="freeze"/>
  </path>
</svg>
